<mxfile host="www.draw.io" modified="2020-02-21T14:29:17.665Z" agent="Mozilla/5.0 (Windows NT 10.0; Win64; x64) AppleWebKit/537.36 (KHTML, like Gecko) Chrome/79.0.3945.88 Safari/537.36" etag="FRL5wr9L3PEdc4x2obSH" version="12.7.3" type="github">
  <diagram id="SjLeIIDS42xYTo4wjzNZ" name="Page-1">
    <mxGraphModel dx="1050" dy="464" grid="0" gridSize="10" guides="1" tooltips="1" connect="1" arrows="1" fold="1" page="1" pageScale="1" pageWidth="850" pageHeight="1100" math="0" shadow="0">
      <root>
        <mxCell id="0" />
        <mxCell id="lj5Vsi1nTVtL1hlr0WQ2-1" value="contextual view" style="locked=1;" parent="0" visible="0" />
        <mxCell id="lj5Vsi1nTVtL1hlr0WQ2-4" value="" style="outlineConnect=0;fontColor=#232F3E;gradientColor=#F54749;gradientDirection=north;fillColor=#C7131F;strokeColor=#ffffff;dashed=0;verticalLabelPosition=bottom;verticalAlign=top;align=center;html=1;fontSize=12;fontStyle=0;aspect=fixed;shape=mxgraph.aws4.resourceIcon;resIcon=mxgraph.aws4.api_gateway;" parent="lj5Vsi1nTVtL1hlr0WQ2-1" vertex="1">
          <mxGeometry x="260" y="188" width="134" height="134" as="geometry" />
        </mxCell>
        <mxCell id="lj5Vsi1nTVtL1hlr0WQ2-5" value="MyAD platform&lt;br&gt;&amp;nbsp;API" style="text;html=1;align=center;verticalAlign=middle;resizable=0;points=[];autosize=1;fontColor=#FFFFFF;fontStyle=1" parent="lj5Vsi1nTVtL1hlr0WQ2-1" vertex="1">
          <mxGeometry x="277" y="189" width="100" height="30" as="geometry" />
        </mxCell>
        <mxCell id="lj5Vsi1nTVtL1hlr0WQ2-7" value="" style="outlineConnect=0;fontColor=#232F3E;gradientColor=#4D72F3;gradientDirection=north;fillColor=#3334B9;strokeColor=#ffffff;dashed=0;verticalLabelPosition=bottom;verticalAlign=top;align=center;html=1;fontSize=12;fontStyle=0;aspect=fixed;shape=mxgraph.aws4.resourceIcon;resIcon=mxgraph.aws4.database;" parent="lj5Vsi1nTVtL1hlr0WQ2-1" vertex="1">
          <mxGeometry x="472" y="189.5" width="132.5" height="132.5" as="geometry" />
        </mxCell>
        <mxCell id="lj5Vsi1nTVtL1hlr0WQ2-8" value="MyAD DB" style="text;html=1;align=center;verticalAlign=middle;resizable=0;points=[];autosize=1;fontColor=#FFFFFF;" parent="lj5Vsi1nTVtL1hlr0WQ2-1" vertex="1">
          <mxGeometry x="503.25" y="260" width="70" height="20" as="geometry" />
        </mxCell>
        <mxCell id="lj5Vsi1nTVtL1hlr0WQ2-9" value="" style="endArrow=classic;startArrow=classic;html=1;fontColor=#FFFFFF;" parent="lj5Vsi1nTVtL1hlr0WQ2-1" edge="1">
          <mxGeometry width="50" height="50" relative="1" as="geometry">
            <mxPoint x="170" y="249.5" as="sourcePoint" />
            <mxPoint x="250" y="249.5" as="targetPoint" />
          </mxGeometry>
        </mxCell>
        <mxCell id="lj5Vsi1nTVtL1hlr0WQ2-10" value="" style="endArrow=classic;startArrow=classic;html=1;fontColor=#FFFFFF;" parent="lj5Vsi1nTVtL1hlr0WQ2-1" edge="1">
          <mxGeometry width="50" height="50" relative="1" as="geometry">
            <mxPoint x="399" y="249.5" as="sourcePoint" />
            <mxPoint x="469" y="249.5" as="targetPoint" />
            <Array as="points">
              <mxPoint x="469" y="249.5" />
            </Array>
          </mxGeometry>
        </mxCell>
        <mxCell id="lj5Vsi1nTVtL1hlr0WQ2-15" value="&lt;font color=&quot;#000000&quot;&gt;MyAD DB contains &lt;br&gt;data from cVault / Jaguar&lt;br&gt;&lt;/font&gt;" style="text;html=1;align=center;verticalAlign=middle;resizable=0;points=[];autosize=1;fontColor=#FFFFFF;" parent="lj5Vsi1nTVtL1hlr0WQ2-1" vertex="1">
          <mxGeometry x="612" y="235" width="150" height="30" as="geometry" />
        </mxCell>
        <mxCell id="lj5Vsi1nTVtL1hlr0WQ2-2" value="" style="verticalLabelPosition=bottom;html=1;fillColor=#2B2FAB;verticalAlign=top;align=center;pointerEvents=1;shape=mxgraph.cisco_safe.design.actor_2;strokeColor=#6c8ebf;" parent="lj5Vsi1nTVtL1hlr0WQ2-1" vertex="1">
          <mxGeometry x="14" y="210" width="30" height="70" as="geometry" />
        </mxCell>
        <mxCell id="lj5Vsi1nTVtL1hlr0WQ2-16" value="&lt;font color=&quot;#000000&quot;&gt;Customer&lt;/font&gt;" style="text;html=1;align=center;verticalAlign=middle;resizable=0;points=[];autosize=1;fontColor=#FFFFFF;" parent="lj5Vsi1nTVtL1hlr0WQ2-1" vertex="1">
          <mxGeometry x="-6" y="289" width="70" height="20" as="geometry" />
        </mxCell>
        <mxCell id="lj5Vsi1nTVtL1hlr0WQ2-22" value="" style="group" parent="lj5Vsi1nTVtL1hlr0WQ2-1" vertex="1" connectable="0">
          <mxGeometry x="75" y="287" width="105" height="25" as="geometry" />
        </mxCell>
        <mxCell id="lj5Vsi1nTVtL1hlr0WQ2-19" value="&lt;font color=&quot;#000000&quot;&gt;Customer TV App&lt;/font&gt;" style="text;html=1;align=center;verticalAlign=middle;resizable=0;points=[];autosize=1;fontColor=#FFFFFF;" parent="lj5Vsi1nTVtL1hlr0WQ2-22" vertex="1">
          <mxGeometry x="-5" width="110" height="20" as="geometry" />
        </mxCell>
        <mxCell id="cQEh5kcW2ITL0lLY0gxM-4" value="" style="group" parent="lj5Vsi1nTVtL1hlr0WQ2-1" vertex="1" connectable="0">
          <mxGeometry x="84" y="225" width="80" height="60" as="geometry" />
        </mxCell>
        <mxCell id="cQEh5kcW2ITL0lLY0gxM-3" value="" style="pointerEvents=1;shadow=0;dashed=0;html=1;strokeColor=none;fillColor=#505050;labelPosition=center;verticalLabelPosition=bottom;verticalAlign=top;outlineConnect=0;align=center;shape=mxgraph.office.devices.tv;" parent="cQEh5kcW2ITL0lLY0gxM-4" vertex="1">
          <mxGeometry width="80" height="60" as="geometry" />
        </mxCell>
        <mxCell id="lj5Vsi1nTVtL1hlr0WQ2-20" value="" style="shape=image;verticalLabelPosition=bottom;labelBackgroundColor=#ffffff;verticalAlign=top;aspect=fixed;imageAspect=0;image=https://upload.wikimedia.org/wikipedia/commons/thumb/a/a7/React-icon.svg/512px-React-icon.svg.png;" parent="cQEh5kcW2ITL0lLY0gxM-4" vertex="1">
          <mxGeometry x="17.99627172995781" y="7.002658227848116" width="45.1264658227848" height="31.905949367088606" as="geometry" />
        </mxCell>
        <mxCell id="Ka8gP7VvI0fFcUKiOHhF-43" value="app view" style="locked=1;" parent="0" visible="0" />
        <mxCell id="Ka8gP7VvI0fFcUKiOHhF-44" value="&lt;div style=&quot;text-align: justify&quot;&gt;&lt;span style=&quot;color: rgb(102 , 0 , 204)&quot;&gt;&amp;nbsp; &amp;nbsp; Business Layer&lt;/span&gt;&lt;/div&gt;&lt;div style=&quot;text-align: justify&quot;&gt;&lt;span style=&quot;color: rgb(102 , 0 , 204)&quot;&gt;&lt;br&gt;&lt;/span&gt;&lt;/div&gt;&lt;div style=&quot;text-align: justify&quot;&gt;&lt;span style=&quot;color: rgb(102 , 0 , 204)&quot;&gt;&lt;br&gt;&lt;/span&gt;&lt;/div&gt;&lt;div style=&quot;text-align: justify&quot;&gt;&lt;span style=&quot;color: rgb(102 , 0 , 204)&quot;&gt;&lt;br&gt;&lt;/span&gt;&lt;/div&gt;&lt;div style=&quot;text-align: justify&quot;&gt;&lt;span style=&quot;color: rgb(102 , 0 , 204)&quot;&gt;&lt;br&gt;&lt;/span&gt;&lt;/div&gt;&lt;div style=&quot;text-align: justify&quot;&gt;&lt;span style=&quot;color: rgb(102 , 0 , 204)&quot;&gt;&lt;br&gt;&lt;/span&gt;&lt;/div&gt;&lt;div style=&quot;text-align: justify&quot;&gt;&lt;span style=&quot;color: rgb(102 , 0 , 204)&quot;&gt;&lt;br&gt;&lt;/span&gt;&lt;/div&gt;&lt;div style=&quot;text-align: justify&quot;&gt;&lt;span style=&quot;color: rgb(102 , 0 , 204)&quot;&gt;&lt;br&gt;&lt;/span&gt;&lt;/div&gt;&lt;div style=&quot;text-align: justify&quot;&gt;&lt;span style=&quot;color: rgb(102 , 0 , 204)&quot;&gt;&lt;br&gt;&lt;/span&gt;&lt;/div&gt;&lt;div style=&quot;text-align: justify&quot;&gt;&lt;span style=&quot;color: rgb(102 , 0 , 204)&quot;&gt;&lt;br&gt;&lt;/span&gt;&lt;/div&gt;&lt;div style=&quot;text-align: justify&quot;&gt;&lt;br&gt;&lt;/div&gt;&lt;div style=&quot;text-align: justify&quot;&gt;&lt;span style=&quot;color: rgb(102 , 0 , 204)&quot;&gt;&lt;br&gt;&lt;/span&gt;&lt;/div&gt;" style="rounded=1;whiteSpace=wrap;html=1;fillColor=#e1d5e7;strokeColor=#9673a6;align=left;" parent="Ka8gP7VvI0fFcUKiOHhF-43" vertex="1">
          <mxGeometry x="144" y="300.25" width="580" height="189.75" as="geometry" />
        </mxCell>
        <mxCell id="Ka8gP7VvI0fFcUKiOHhF-45" value="&lt;span style=&quot;white-space: normal&quot;&gt;UI components (using horizon components)&lt;/span&gt;" style="rounded=1;whiteSpace=wrap;html=1;fillColor=#f8cecc;strokeColor=#b85450;fontColor=#CC0000;" parent="Ka8gP7VvI0fFcUKiOHhF-43" vertex="1">
          <mxGeometry x="186.30769230769232" y="431.525" width="481.84615384615387" height="50.324999999999996" as="geometry" />
        </mxCell>
        <mxCell id="Ka8gP7VvI0fFcUKiOHhF-46" value="controller / state management layer" style="rounded=1;whiteSpace=wrap;html=1;fillColor=#fff2cc;strokeColor=#d6b656;fontColor=#CC6600;" parent="Ka8gP7VvI0fFcUKiOHhF-43" vertex="1">
          <mxGeometry x="186.30769230769232" y="343.15" width="481.84615384615387" height="41.25" as="geometry" />
        </mxCell>
        <mxCell id="Ka8gP7VvI0fFcUKiOHhF-50" value="Application bootstrap and routing layer" style="rounded=1;whiteSpace=wrap;html=1;fillColor=#ffe6cc;strokeColor=#d79b00;fontColor=#FF8000;" parent="Ka8gP7VvI0fFcUKiOHhF-43" vertex="1">
          <mxGeometry x="143" y="168" width="580" height="74.25" as="geometry" />
        </mxCell>
        <mxCell id="Ka8gP7VvI0fFcUKiOHhF-55" value="" style="group" parent="Ka8gP7VvI0fFcUKiOHhF-43" vertex="1" connectable="0">
          <mxGeometry x="411.61538461538464" y="246.5" width="66.03076923076924" height="49.5" as="geometry" />
        </mxCell>
        <mxCell id="Ka8gP7VvI0fFcUKiOHhF-53" value="" style="shape=flexArrow;endArrow=classic;html=1;strokeColor=#d79b00;fontColor=#FF8000;fillColor=#ffe6cc;" parent="Ka8gP7VvI0fFcUKiOHhF-55" edge="1">
          <mxGeometry width="50" height="50" relative="1" as="geometry">
            <mxPoint as="sourcePoint" />
            <mxPoint y="49.5" as="targetPoint" />
          </mxGeometry>
        </mxCell>
        <mxCell id="Ka8gP7VvI0fFcUKiOHhF-54" value="delegate" style="text;html=1;align=center;verticalAlign=middle;resizable=0;points=[];autosize=1;fontColor=#FF8000;" parent="Ka8gP7VvI0fFcUKiOHhF-55" vertex="1">
          <mxGeometry x="12.492307692307692" y="8.25" width="60" height="20" as="geometry" />
        </mxCell>
        <mxCell id="Ka8gP7VvI0fFcUKiOHhF-57" value="Redux&lt;br&gt;Store" style="rounded=1;whiteSpace=wrap;html=1;fillColor=#d5e8d4;strokeColor=#82b366;direction=south;fontColor=#006600;" parent="Ka8gP7VvI0fFcUKiOHhF-43" vertex="1">
          <mxGeometry x="10" y="160" width="74.25" height="320" as="geometry" />
        </mxCell>
        <mxCell id="Ka8gP7VvI0fFcUKiOHhF-58" value="" style="shape=flexArrow;endArrow=classic;startArrow=classic;html=1;strokeColor=#82b366;fontColor=#006600;fillColor=#d5e8d4;" parent="Ka8gP7VvI0fFcUKiOHhF-43" edge="1">
          <mxGeometry width="50" height="50" relative="1" as="geometry">
            <mxPoint x="85.25" y="204" as="sourcePoint" />
            <mxPoint x="141" y="204" as="targetPoint" />
          </mxGeometry>
        </mxCell>
        <mxCell id="Ka8gP7VvI0fFcUKiOHhF-59" value="" style="shape=flexArrow;endArrow=classic;startArrow=classic;html=1;strokeColor=#82b366;fontColor=#006600;fillColor=#d5e8d4;" parent="Ka8gP7VvI0fFcUKiOHhF-43" edge="1">
          <mxGeometry width="50" height="50" relative="1" as="geometry">
            <mxPoint x="85.25" y="384.4" as="sourcePoint" />
            <mxPoint x="141" y="384.4" as="targetPoint" />
          </mxGeometry>
        </mxCell>
        <mxCell id="Ka8gP7VvI0fFcUKiOHhF-60" value="store &lt;br&gt;and retieve&amp;nbsp;&lt;br&gt;data" style="text;html=1;align=center;verticalAlign=middle;resizable=0;points=[];autosize=1;fontColor=#006600;" parent="Ka8gP7VvI0fFcUKiOHhF-43" vertex="1">
          <mxGeometry x="81" y="260" width="80" height="50" as="geometry" />
        </mxCell>
        <mxCell id="Ka8gP7VvI0fFcUKiOHhF-61" value="MyAD&lt;br&gt;Platform API&lt;br&gt;(1)" style="rounded=1;whiteSpace=wrap;html=1;direction=south;fillColor=#dae8fc;strokeColor=#6c8ebf;fontColor=#0000CC;dashed=1;" parent="Ka8gP7VvI0fFcUKiOHhF-43" vertex="1">
          <mxGeometry x="780" y="302.02" width="60" height="186.22" as="geometry" />
        </mxCell>
        <mxCell id="Ka8gP7VvI0fFcUKiOHhF-62" value="" style="shape=flexArrow;endArrow=classic;startArrow=classic;html=1;strokeColor=#6c8ebf;fontColor=#006600;fillColor=#dae8fc;exitX=1;exitY=0.5;exitDx=0;exitDy=0;" parent="Ka8gP7VvI0fFcUKiOHhF-43" source="Ka8gP7VvI0fFcUKiOHhF-46" edge="1">
          <mxGeometry width="50" height="50" relative="1" as="geometry">
            <mxPoint x="723" y="363.2800000000001" as="sourcePoint" />
            <mxPoint x="778.75" y="363.2800000000001" as="targetPoint" />
          </mxGeometry>
        </mxCell>
        <mxCell id="Ka8gP7VvI0fFcUKiOHhF-63" value="api calls" style="text;html=1;align=center;verticalAlign=middle;resizable=0;points=[];autosize=1;fontColor=#0000CC;" parent="Ka8gP7VvI0fFcUKiOHhF-43" vertex="1">
          <mxGeometry x="720" y="323.15" width="60" height="20" as="geometry" />
        </mxCell>
        <mxCell id="Ka8gP7VvI0fFcUKiOHhF-66" value="(1) : The MyAD platform API is covered in another ARD" style="text;align=right;verticalAlign=middle;resizable=0;points=[];autosize=1;fontColor=#0000CC;labelBorderColor=none;textDirection=ltr;labelPosition=left;verticalLabelPosition=middle;" parent="Ka8gP7VvI0fFcUKiOHhF-43" vertex="1">
          <mxGeometry x="452" y="510" width="328" height="20" as="geometry" />
        </mxCell>
        <mxCell id="Ka8gP7VvI0fFcUKiOHhF-67" value="" style="shape=flexArrow;endArrow=classic;html=1;strokeColor=#6600CC;fontColor=#0000CC;" parent="Ka8gP7VvI0fFcUKiOHhF-43" edge="1">
          <mxGeometry width="50" height="50" relative="1" as="geometry">
            <mxPoint x="280" y="388" as="sourcePoint" />
            <mxPoint x="280" y="428" as="targetPoint" />
          </mxGeometry>
        </mxCell>
        <mxCell id="Ka8gP7VvI0fFcUKiOHhF-68" value="" style="shape=flexArrow;endArrow=classic;html=1;strokeColor=#6600CC;fontColor=#0000CC;" parent="Ka8gP7VvI0fFcUKiOHhF-43" edge="1">
          <mxGeometry width="50" height="50" relative="1" as="geometry">
            <mxPoint x="510" y="428.53" as="sourcePoint" />
            <mxPoint x="510" y="388.53" as="targetPoint" />
          </mxGeometry>
        </mxCell>
        <mxCell id="Ka8gP7VvI0fFcUKiOHhF-69" value="re-render on&lt;br&gt;&amp;nbsp;state changes" style="text;html=1;align=center;verticalAlign=middle;resizable=0;points=[];autosize=1;fontColor=#0000CC;" parent="Ka8gP7VvI0fFcUKiOHhF-43" vertex="1">
          <mxGeometry x="179" y="393.53" width="90" height="30" as="geometry" />
        </mxCell>
        <mxCell id="Ka8gP7VvI0fFcUKiOHhF-71" value="notify on &lt;br&gt;UI events" style="text;html=1;align=center;verticalAlign=middle;resizable=0;points=[];autosize=1;fontColor=#0000CC;" parent="Ka8gP7VvI0fFcUKiOHhF-43" vertex="1">
          <mxGeometry x="530" y="393.53" width="70" height="30" as="geometry" />
        </mxCell>
        <mxCell id="bXQwL9Fw8VNqXE39m1aw-1" value="Auth system :&amp;nbsp;&lt;br&gt;Onelogin via cognito" style="rounded=1;whiteSpace=wrap;html=1;fillColor=#f8cecc;strokeColor=#b85450;fontColor=#CC0000;" parent="Ka8gP7VvI0fFcUKiOHhF-43" vertex="1">
          <mxGeometry x="759" y="28" width="90" height="90" as="geometry" />
        </mxCell>
        <mxCell id="bXQwL9Fw8VNqXE39m1aw-2" value="" style="shape=flexArrow;endArrow=classic;startArrow=classic;html=1;fontColor=#CC0000;fillColor=#f8cecc;strokeColor=#b85450;" parent="Ka8gP7VvI0fFcUKiOHhF-43" edge="1">
          <mxGeometry width="50" height="50" relative="1" as="geometry">
            <mxPoint x="721" y="163" as="sourcePoint" />
            <mxPoint x="761" y="123" as="targetPoint" />
          </mxGeometry>
        </mxCell>
        <mxCell id="1" value="infra view" style="locked=1;" parent="0" visible="0" />
        <mxCell id="Ka8gP7VvI0fFcUKiOHhF-109" value="VPC" style="points=[[0,0],[0.25,0],[0.5,0],[0.75,0],[1,0],[1,0.25],[1,0.5],[1,0.75],[1,1],[0.75,1],[0.5,1],[0.25,1],[0,1],[0,0.75],[0,0.5],[0,0.25]];outlineConnect=0;gradientColor=none;html=1;whiteSpace=wrap;fontSize=12;fontStyle=0;shape=mxgraph.aws4.group;grIcon=mxgraph.aws4.group_vpc;strokeColor=#248814;fillColor=none;verticalAlign=top;align=left;spacingLeft=30;fontColor=#AAB7B8;dashed=0;" parent="1" vertex="1">
          <mxGeometry x="325" y="146.73" width="475" height="223.27" as="geometry" />
        </mxCell>
        <mxCell id="Ka8gP7VvI0fFcUKiOHhF-107" value="AWS Cloud" style="points=[[0,0],[0.25,0],[0.5,0],[0.75,0],[1,0],[1,0.25],[1,0.5],[1,0.75],[1,1],[0.75,1],[0.5,1],[0.25,1],[0,1],[0,0.75],[0,0.5],[0,0.25]];outlineConnect=0;gradientColor=none;html=1;whiteSpace=wrap;fontSize=12;fontStyle=0;shape=mxgraph.aws4.group;grIcon=mxgraph.aws4.group_aws_cloud_alt;strokeColor=#232F3E;fillColor=none;verticalAlign=top;align=left;spacingLeft=30;fontColor=#232F3E;dashed=0;" parent="1" vertex="1">
          <mxGeometry x="280" y="10" width="540" height="480" as="geometry" />
        </mxCell>
        <mxCell id="Ka8gP7VvI0fFcUKiOHhF-108" value="EU West 1" style="points=[[0,0],[0.25,0],[0.5,0],[0.75,0],[1,0],[1,0.25],[1,0.5],[1,0.75],[1,1],[0.75,1],[0.5,1],[0.25,1],[0,1],[0,0.75],[0,0.5],[0,0.25]];outlineConnect=0;gradientColor=none;html=1;whiteSpace=wrap;fontSize=12;fontStyle=0;shape=mxgraph.aws4.group;grIcon=mxgraph.aws4.group_region;strokeColor=#147EBA;fillColor=none;verticalAlign=top;align=left;spacingLeft=30;fontColor=#147EBA;dashed=0;" parent="1" vertex="1">
          <mxGeometry x="300" y="40" width="510" height="430" as="geometry" />
        </mxCell>
        <mxCell id="Ka8gP7VvI0fFcUKiOHhF-110" value="" style="whiteSpace=wrap;html=1;aspect=fixed;fontColor=#000000;align=center;" parent="1" vertex="1">
          <mxGeometry x="8" y="30" width="250" height="250" as="geometry" />
        </mxCell>
        <mxCell id="gB_tlkMbJe6bkOpFI1ri-7" value="" style="outlineConnect=0;fontColor=#232F3E;gradientColor=none;fillColor=#5A30B5;strokeColor=none;dashed=0;verticalLabelPosition=bottom;verticalAlign=top;align=center;html=1;fontSize=12;fontStyle=0;aspect=fixed;pointerEvents=1;shape=mxgraph.aws4.application_load_balancer;" parent="1" vertex="1">
          <mxGeometry x="336" y="184.13" width="58" height="58" as="geometry" />
        </mxCell>
        <mxCell id="gB_tlkMbJe6bkOpFI1ri-8" value="" style="outlineConnect=0;fillColor=#3399FF;strokeColor=#6c8ebf;dashed=0;verticalLabelPosition=bottom;verticalAlign=top;align=center;html=1;fontSize=12;fontStyle=0;aspect=fixed;pointerEvents=1;shape=mxgraph.aws4.hosted_zone;" parent="1" vertex="1">
          <mxGeometry x="311" y="67" width="58" height="57.26" as="geometry" />
        </mxCell>
        <mxCell id="gB_tlkMbJe6bkOpFI1ri-15" value="" style="edgeStyle=orthogonalEdgeStyle;rounded=0;orthogonalLoop=1;jettySize=auto;html=1;" parent="1" source="gB_tlkMbJe6bkOpFI1ri-7" target="gB_tlkMbJe6bkOpFI1ri-9" edge="1">
          <mxGeometry relative="1" as="geometry">
            <mxPoint x="410" y="212.63" as="sourcePoint" />
          </mxGeometry>
        </mxCell>
        <mxCell id="gB_tlkMbJe6bkOpFI1ri-18" style="edgeStyle=orthogonalEdgeStyle;rounded=0;orthogonalLoop=1;jettySize=auto;html=1;entryX=0;entryY=0.504;entryDx=0;entryDy=0;entryPerimeter=0;startArrow=classic;startFill=1;" parent="1" source="gB_tlkMbJe6bkOpFI1ri-9" target="gB_tlkMbJe6bkOpFI1ri-6" edge="1">
          <mxGeometry relative="1" as="geometry" />
        </mxCell>
        <mxCell id="gB_tlkMbJe6bkOpFI1ri-9" value="" style="outlineConnect=0;fontColor=#232F3E;gradientColor=none;fillColor=#D05C17;strokeColor=none;dashed=0;verticalLabelPosition=bottom;verticalAlign=top;align=center;html=1;fontSize=12;fontStyle=0;aspect=fixed;pointerEvents=1;shape=mxgraph.aws4.lambda_function;" parent="1" vertex="1">
          <mxGeometry x="440" y="183.13" width="59" height="59" as="geometry" />
        </mxCell>
        <mxCell id="gB_tlkMbJe6bkOpFI1ri-11" value="" style="group" parent="1" vertex="1" connectable="0">
          <mxGeometry x="561" y="182.13" width="92" height="59" as="geometry" />
        </mxCell>
        <mxCell id="gB_tlkMbJe6bkOpFI1ri-6" value="" style="outlineConnect=0;fontColor=#232F3E;gradientColor=none;fillColor=#5A30B5;strokeColor=none;dashed=0;verticalLabelPosition=bottom;verticalAlign=top;align=center;html=1;fontSize=12;fontStyle=0;aspect=fixed;pointerEvents=1;shape=mxgraph.aws4.endpoints;" parent="gB_tlkMbJe6bkOpFI1ri-11" vertex="1">
          <mxGeometry y="16.984848484848484" width="26.818181818181817" height="26.818181818181817" as="geometry" />
        </mxCell>
        <mxCell id="gB_tlkMbJe6bkOpFI1ri-10" value="" style="outlineConnect=0;fontColor=#232F3E;gradientColor=none;fillColor=#5A30B5;strokeColor=none;dashed=0;verticalLabelPosition=bottom;verticalAlign=top;align=center;html=1;fontSize=12;fontStyle=0;aspect=fixed;pointerEvents=1;shape=mxgraph.aws4.endpoint;" parent="gB_tlkMbJe6bkOpFI1ri-11" vertex="1">
          <mxGeometry x="30.040816326530614" width="59" height="59" as="geometry" />
        </mxCell>
        <mxCell id="gB_tlkMbJe6bkOpFI1ri-12" value="" style="outlineConnect=0;fontColor=#232F3E;gradientColor=none;fillColor=#277116;strokeColor=none;dashed=0;verticalLabelPosition=bottom;verticalAlign=top;align=center;html=1;fontSize=12;fontStyle=0;aspect=fixed;pointerEvents=1;shape=mxgraph.aws4.bucket_with_objects;" parent="1" vertex="1">
          <mxGeometry x="721" y="183.13" width="55" height="57.2" as="geometry" />
        </mxCell>
        <mxCell id="gB_tlkMbJe6bkOpFI1ri-19" value="" style="edgeStyle=orthogonalEdgeStyle;rounded=0;orthogonalLoop=1;jettySize=auto;html=1;startArrow=classic;startFill=1;" parent="1" source="gB_tlkMbJe6bkOpFI1ri-10" target="gB_tlkMbJe6bkOpFI1ri-12" edge="1">
          <mxGeometry relative="1" as="geometry" />
        </mxCell>
        <mxCell id="gB_tlkMbJe6bkOpFI1ri-20" value="Route 53 &lt;br&gt;hosted zone" style="text;html=1;align=center;verticalAlign=middle;resizable=0;points=[];autosize=1;fontColor=#3399FF;" parent="1" vertex="1">
          <mxGeometry x="369" y="80" width="80" height="30" as="geometry" />
        </mxCell>
        <mxCell id="gB_tlkMbJe6bkOpFI1ri-21" value="ALB" style="text;html=1;align=center;verticalAlign=middle;resizable=0;points=[];autosize=1;" parent="1" vertex="1">
          <mxGeometry x="343" y="242.63" width="40" height="20" as="geometry" />
        </mxCell>
        <mxCell id="gB_tlkMbJe6bkOpFI1ri-22" value="Lambda &lt;br&gt;as proxy" style="text;html=1;align=center;verticalAlign=middle;resizable=0;points=[];autosize=1;" parent="1" vertex="1">
          <mxGeometry x="441" y="244.63" width="60" height="30" as="geometry" />
        </mxCell>
        <mxCell id="gB_tlkMbJe6bkOpFI1ri-23" value="API gateway&lt;br&gt;with vpc endpoint&amp;nbsp;" style="text;html=1;align=center;verticalAlign=middle;resizable=0;points=[];autosize=1;" parent="1" vertex="1">
          <mxGeometry x="570" y="243.63" width="110" height="30" as="geometry" />
        </mxCell>
        <mxCell id="gB_tlkMbJe6bkOpFI1ri-24" value="S3 &lt;br&gt;bucket" style="text;html=1;align=center;verticalAlign=middle;resizable=0;points=[];autosize=1;" parent="1" vertex="1">
          <mxGeometry x="724.5" y="242.63" width="50" height="30" as="geometry" />
        </mxCell>
        <mxCell id="Ka8gP7VvI0fFcUKiOHhF-102" value="https" style="text;html=1;align=center;verticalAlign=middle;resizable=0;points=[];autosize=1;fontColor=#000000;" parent="1" vertex="1">
          <mxGeometry x="506" y="210.63" width="40" height="20" as="geometry" />
        </mxCell>
        <mxCell id="Ka8gP7VvI0fFcUKiOHhF-103" value="https" style="text;html=1;align=center;verticalAlign=middle;resizable=0;points=[];autosize=1;fontColor=#000000;" parent="1" vertex="1">
          <mxGeometry x="660" y="211.63" width="40" height="20" as="geometry" />
        </mxCell>
        <mxCell id="Ka8gP7VvI0fFcUKiOHhF-112" style="edgeStyle=orthogonalEdgeStyle;rounded=0;orthogonalLoop=1;jettySize=auto;html=1;strokeColor=#3399FF;fontColor=#000000;" parent="1" source="Ka8gP7VvI0fFcUKiOHhF-104" target="gB_tlkMbJe6bkOpFI1ri-8" edge="1">
          <mxGeometry relative="1" as="geometry" />
        </mxCell>
        <mxCell id="Ka8gP7VvI0fFcUKiOHhF-104" value="" style="verticalLabelPosition=bottom;html=1;fillColor=#28A8E0;verticalAlign=top;points=[[0.145,0.145,0],[0.8555,0.145,0],[0.855,0.855,0],[0.145,0.855,0],[0.5,0,0], [1,0.5,0], [0.5,1,0],[0,0.5,0]];pointerEvents=1;align=center;shape=mxgraph.cisco_safe.capability.dns;fontColor=#000000;" parent="1" vertex="1">
          <mxGeometry x="120" y="70.63" width="50" height="50" as="geometry" />
        </mxCell>
        <mxCell id="Ka8gP7VvI0fFcUKiOHhF-111" value="target" style="text;html=1;align=center;verticalAlign=middle;resizable=0;points=[];autosize=1;fontColor=#000000;" parent="1" vertex="1">
          <mxGeometry x="390" y="211.63" width="50" height="20" as="geometry" />
        </mxCell>
        <mxCell id="Ka8gP7VvI0fFcUKiOHhF-113" value="dns resolution" style="text;html=1;align=center;verticalAlign=middle;resizable=0;points=[];autosize=1;fontColor=#3399FF;" parent="1" vertex="1">
          <mxGeometry x="170" y="70.63" width="90" height="20" as="geometry" />
        </mxCell>
        <mxCell id="Ka8gP7VvI0fFcUKiOHhF-118" style="edgeStyle=orthogonalEdgeStyle;rounded=0;orthogonalLoop=1;jettySize=auto;html=1;strokeColor=#3399FF;fontColor=#000000;entryX=0.64;entryY=0.987;entryDx=0;entryDy=0;entryPerimeter=0;" parent="1" target="Ka8gP7VvI0fFcUKiOHhF-104" edge="1">
          <mxGeometry relative="1" as="geometry">
            <mxPoint x="152.4000000000001" y="177.13" as="sourcePoint" />
            <mxPoint x="321.0862145545798" y="106" as="targetPoint" />
          </mxGeometry>
        </mxCell>
        <mxCell id="Ka8gP7VvI0fFcUKiOHhF-119" value="dns resolution" style="text;html=1;align=center;verticalAlign=middle;resizable=0;points=[];autosize=1;fontColor=#3399FF;" parent="1" vertex="1">
          <mxGeometry x="60" y="145" width="90" height="20" as="geometry" />
        </mxCell>
        <mxCell id="Ka8gP7VvI0fFcUKiOHhF-120" value="" style="endArrow=classic;html=1;strokeColor=#000000;fontColor=#3399FF;entryX=0.032;entryY=0.283;entryDx=0;entryDy=0;entryPerimeter=0;startArrow=classic;startFill=1;" parent="1" target="Ka8gP7VvI0fFcUKiOHhF-109" edge="1">
          <mxGeometry width="50" height="50" relative="1" as="geometry">
            <mxPoint x="198.76999999999998" y="210.02805549530126" as="sourcePoint" />
            <mxPoint x="60" y="510" as="targetPoint" />
          </mxGeometry>
        </mxCell>
        <mxCell id="Ka8gP7VvI0fFcUKiOHhF-121" value="https" style="text;html=1;align=center;verticalAlign=middle;resizable=0;points=[];autosize=1;fontColor=#000000;" parent="1" vertex="1">
          <mxGeometry x="205" y="211.63" width="40" height="20" as="geometry" />
        </mxCell>
        <mxCell id="Ka8gP7VvI0fFcUKiOHhF-122" value="Airbus LAN" style="text;html=1;align=center;verticalAlign=middle;resizable=0;points=[];autosize=1;fontColor=#000000;" parent="1" vertex="1">
          <mxGeometry x="8" y="30" width="80" height="20" as="geometry" />
        </mxCell>
        <mxCell id="Ka8gP7VvI0fFcUKiOHhF-123" value="customer tv" style="text;html=1;align=center;verticalAlign=middle;resizable=0;points=[];autosize=1;fontColor=#000000;" parent="1" vertex="1">
          <mxGeometry x="109.39" y="254" width="80" height="20" as="geometry" />
        </mxCell>
        <mxCell id="T0iJW6xwWuFh2RoNAZjV-1" value="" style="pointerEvents=1;shadow=0;dashed=0;html=1;strokeColor=none;fillColor=#505050;labelPosition=center;verticalLabelPosition=bottom;verticalAlign=top;outlineConnect=0;align=center;shape=mxgraph.office.devices.tv;" vertex="1" parent="1">
          <mxGeometry x="101.39" y="181.13" width="96" height="70" as="geometry" />
        </mxCell>
        <mxCell id="gB_tlkMbJe6bkOpFI1ri-27" value="functional system diagram" style="locked=1;" parent="0" visible="0" />
        <mxCell id="lj5Vsi1nTVtL1hlr0WQ2-26" value="API platform (1)" style="rounded=1;whiteSpace=wrap;html=1;fillColor=#f8cecc;strokeColor=#b85450;fontColor=#FF0000;" parent="gB_tlkMbJe6bkOpFI1ri-27" vertex="1">
          <mxGeometry x="10" y="236" width="820" height="60" as="geometry" />
        </mxCell>
        <mxCell id="lj5Vsi1nTVtL1hlr0WQ2-27" value="DB Storage&amp;nbsp; (1)" style="rounded=1;whiteSpace=wrap;html=1;fillColor=#f8cecc;strokeColor=#b85450;fontColor=#FF0000;" parent="gB_tlkMbJe6bkOpFI1ri-27" vertex="1">
          <mxGeometry x="10" y="333" width="820" height="60" as="geometry" />
        </mxCell>
        <mxCell id="lj5Vsi1nTVtL1hlr0WQ2-28" value="" style="endArrow=classic;startArrow=classic;html=1;fontColor=#FFFFFF;strokeColor=#FF0000;" parent="gB_tlkMbJe6bkOpFI1ri-27" edge="1">
          <mxGeometry width="50" height="50" relative="1" as="geometry">
            <mxPoint x="279.5" y="330" as="sourcePoint" />
            <mxPoint x="279.5" y="300" as="targetPoint" />
          </mxGeometry>
        </mxCell>
        <mxCell id="lj5Vsi1nTVtL1hlr0WQ2-35" value="&lt;font color=&quot;#000000&quot;&gt;(1) : detailled in MyAD Platform API ARD&lt;/font&gt;" style="text;html=1;align=center;verticalAlign=middle;resizable=0;points=[];autosize=1;fontColor=#FFFFFF;" parent="gB_tlkMbJe6bkOpFI1ri-27" vertex="1">
          <mxGeometry x="20" y="415" width="230" height="20" as="geometry" />
        </mxCell>
        <mxCell id="Ka8gP7VvI0fFcUKiOHhF-72" value="" style="endArrow=classic;startArrow=classic;html=1;fontColor=#FFFFFF;strokeColor=#FF0000;" parent="gB_tlkMbJe6bkOpFI1ri-27" edge="1">
          <mxGeometry width="50" height="50" relative="1" as="geometry">
            <mxPoint x="119" y="229" as="sourcePoint" />
            <mxPoint x="119" y="189" as="targetPoint" />
          </mxGeometry>
        </mxCell>
        <mxCell id="Ka8gP7VvI0fFcUKiOHhF-75" value="" style="endArrow=classic;startArrow=classic;html=1;fontColor=#FFFFFF;strokeColor=#FF0000;" parent="gB_tlkMbJe6bkOpFI1ri-27" edge="1">
          <mxGeometry width="50" height="50" relative="1" as="geometry">
            <mxPoint x="541" y="228" as="sourcePoint" />
            <mxPoint x="541" y="188" as="targetPoint" />
          </mxGeometry>
        </mxCell>
        <mxCell id="Ka8gP7VvI0fFcUKiOHhF-79" value="" style="endArrow=classic;startArrow=classic;html=1;fontColor=#FFFFFF;strokeColor=#FF0000;" parent="gB_tlkMbJe6bkOpFI1ri-27" edge="1">
          <mxGeometry width="50" height="50" relative="1" as="geometry">
            <mxPoint x="333.5" y="229" as="sourcePoint" />
            <mxPoint x="333.5" y="189" as="targetPoint" />
          </mxGeometry>
        </mxCell>
        <mxCell id="Ka8gP7VvI0fFcUKiOHhF-83" value="" style="group" parent="gB_tlkMbJe6bkOpFI1ri-27" vertex="1" connectable="0">
          <mxGeometry x="445" y="114" width="189" height="67" as="geometry" />
        </mxCell>
        <mxCell id="Ka8gP7VvI0fFcUKiOHhF-80" value="Cockpit dashboard" style="rounded=1;whiteSpace=wrap;html=1;align=center;fillColor=#ffe6cc;strokeColor=#d79b00;fontColor=#FF8000;" parent="Ka8gP7VvI0fFcUKiOHhF-83" vertex="1">
          <mxGeometry width="189" height="67" as="geometry" />
        </mxCell>
        <mxCell id="Ka8gP7VvI0fFcUKiOHhF-85" value="" style="group" parent="gB_tlkMbJe6bkOpFI1ri-27" vertex="1" connectable="0">
          <mxGeometry x="12" y="114" width="202" height="67" as="geometry" />
        </mxCell>
        <mxCell id="lj5Vsi1nTVtL1hlr0WQ2-30" value="&lt;div&gt;&lt;span&gt;Customer Agenda&lt;/span&gt;&lt;/div&gt;" style="rounded=1;whiteSpace=wrap;html=1;fillColor=#dae8fc;strokeColor=#6c8ebf;align=center;fontColor=#0000CC;" parent="Ka8gP7VvI0fFcUKiOHhF-85" vertex="1">
          <mxGeometry width="202" height="67" as="geometry" />
        </mxCell>
        <mxCell id="mZV7JVjNdz0op6qMwDoK-1" value="" style="endArrow=classic;startArrow=classic;html=1;fontColor=#FFFFFF;strokeColor=#FF0000;" parent="gB_tlkMbJe6bkOpFI1ri-27" edge="1">
          <mxGeometry width="50" height="50" relative="1" as="geometry">
            <mxPoint x="640" y="330" as="sourcePoint" />
            <mxPoint x="640" y="300" as="targetPoint" />
          </mxGeometry>
        </mxCell>
        <mxCell id="mZV7JVjNdz0op6qMwDoK-2" value="" style="endArrow=classic;startArrow=classic;html=1;fontColor=#FFFFFF;strokeColor=#FF0000;" parent="gB_tlkMbJe6bkOpFI1ri-27" edge="1">
          <mxGeometry width="50" height="50" relative="1" as="geometry">
            <mxPoint x="440" y="330" as="sourcePoint" />
            <mxPoint x="440" y="300" as="targetPoint" />
          </mxGeometry>
        </mxCell>
        <mxCell id="Ka8gP7VvI0fFcUKiOHhF-74" value="&lt;div&gt;&lt;span&gt;Customer Safety Page&lt;/span&gt;&lt;/div&gt;" style="rounded=1;whiteSpace=wrap;html=1;align=center;fillColor=#d5e8d4;strokeColor=#82b366;fontColor=#009900;" parent="gB_tlkMbJe6bkOpFI1ri-27" vertex="1">
          <mxGeometry x="242" y="114" width="179" height="67" as="geometry" />
        </mxCell>
        <mxCell id="T0iJW6xwWuFh2RoNAZjV-2" value="&lt;font face=&quot;arial, sans-serif&quot; style=&quot;font-size: 12px&quot;&gt;Customer team info&lt;/font&gt;" style="rounded=1;whiteSpace=wrap;html=1;align=center;fillColor=#fff2cc;strokeColor=#d6b656;fontColor=#999900;" vertex="1" parent="gB_tlkMbJe6bkOpFI1ri-27">
          <mxGeometry x="653" y="114" width="171" height="67" as="geometry" />
        </mxCell>
        <mxCell id="T0iJW6xwWuFh2RoNAZjV-3" value="" style="endArrow=classic;startArrow=classic;html=1;fontColor=#FFFFFF;strokeColor=#FF0000;" edge="1" parent="gB_tlkMbJe6bkOpFI1ri-27">
          <mxGeometry width="50" height="50" relative="1" as="geometry">
            <mxPoint x="737" y="229" as="sourcePoint" />
            <mxPoint x="737" y="189" as="targetPoint" />
          </mxGeometry>
        </mxCell>
        <mxCell id="Ka8gP7VvI0fFcUKiOHhF-1" value="components view bkg" style="" parent="0" />
        <mxCell id="T0iJW6xwWuFh2RoNAZjV-8" value="" style="rounded=1;whiteSpace=wrap;html=1;fontColor=#999900;strokeWidth=9;" vertex="1" parent="Ka8gP7VvI0fFcUKiOHhF-1">
          <mxGeometry x="23" y="178" width="797" height="551" as="geometry" />
        </mxCell>
        <mxCell id="T0iJW6xwWuFh2RoNAZjV-9" value="" style="rounded=1;whiteSpace=wrap;html=1;strokeWidth=5;fontColor=#999900;fillColor=#000000;" vertex="1" parent="Ka8gP7VvI0fFcUKiOHhF-1">
          <mxGeometry x="317" y="740" width="216" height="11" as="geometry" />
        </mxCell>
        <mxCell id="Ka8gP7VvI0fFcUKiOHhF-7" value="components view front" style="" parent="0" />
        <mxCell id="Ka8gP7VvI0fFcUKiOHhF-35" value="" style="rounded=1;whiteSpace=wrap;html=1;fillColor=#ffe6cc;strokeColor=#d79b00;fontColor=#CC6600;" parent="Ka8gP7VvI0fFcUKiOHhF-7" vertex="1">
          <mxGeometry x="80" y="390" width="710" height="90" as="geometry" />
        </mxCell>
        <mxCell id="Ka8gP7VvI0fFcUKiOHhF-12" style="edgeStyle=orthogonalEdgeStyle;rounded=0;orthogonalLoop=1;jettySize=auto;html=1;exitX=1;exitY=0.5;exitDx=0;exitDy=0;entryX=0;entryY=0.5;entryDx=0;entryDy=0;fontColor=#CC6600;strokeColor=#FF8000;" parent="Ka8gP7VvI0fFcUKiOHhF-7" source="Ka8gP7VvI0fFcUKiOHhF-8" target="Ka8gP7VvI0fFcUKiOHhF-11" edge="1">
          <mxGeometry relative="1" as="geometry" />
        </mxCell>
        <mxCell id="Ka8gP7VvI0fFcUKiOHhF-8" value="TV App main entry point" style="rounded=1;whiteSpace=wrap;html=1;fillColor=#d5e8d4;strokeColor=#82b366;fontColor=#009900;" parent="Ka8gP7VvI0fFcUKiOHhF-7" vertex="1">
          <mxGeometry x="122" y="278" width="115" height="30" as="geometry" />
        </mxCell>
        <mxCell id="Ka8gP7VvI0fFcUKiOHhF-11" value="Router" style="rounded=1;whiteSpace=wrap;html=1;fillColor=#d5e8d4;strokeColor=#82b366;fontColor=#009900;" parent="Ka8gP7VvI0fFcUKiOHhF-7" vertex="1">
          <mxGeometry x="315" y="278" width="215" height="30" as="geometry" />
        </mxCell>
        <mxCell id="Ka8gP7VvI0fFcUKiOHhF-20" style="edgeStyle=orthogonalEdgeStyle;rounded=0;orthogonalLoop=1;jettySize=auto;html=1;strokeColor=#FF8000;fontColor=#009900;exitX=0.5;exitY=1;exitDx=0;exitDy=0;" parent="Ka8gP7VvI0fFcUKiOHhF-7" target="Ka8gP7VvI0fFcUKiOHhF-17" edge="1">
          <mxGeometry relative="1" as="geometry">
            <mxPoint x="425.5" y="373" as="sourcePoint" />
          </mxGeometry>
        </mxCell>
        <mxCell id="Ka8gP7VvI0fFcUKiOHhF-23" style="edgeStyle=orthogonalEdgeStyle;rounded=0;orthogonalLoop=1;jettySize=auto;html=1;strokeColor=#FF8000;fontColor=#009900;exitX=0.5;exitY=1;exitDx=0;exitDy=0;" parent="Ka8gP7VvI0fFcUKiOHhF-7" target="Ka8gP7VvI0fFcUKiOHhF-19" edge="1">
          <mxGeometry relative="1" as="geometry">
            <mxPoint x="425.5" y="373" as="sourcePoint" />
          </mxGeometry>
        </mxCell>
        <mxCell id="Ka8gP7VvI0fFcUKiOHhF-27" style="edgeStyle=orthogonalEdgeStyle;rounded=0;orthogonalLoop=1;jettySize=auto;html=1;strokeColor=#FF8000;fontColor=#009900;" parent="Ka8gP7VvI0fFcUKiOHhF-7" target="Ka8gP7VvI0fFcUKiOHhF-26" edge="1">
          <mxGeometry relative="1" as="geometry">
            <mxPoint x="425.5" y="373" as="sourcePoint" />
          </mxGeometry>
        </mxCell>
        <mxCell id="Ka8gP7VvI0fFcUKiOHhF-17" value="FCM Dashboard&lt;br&gt;&amp;nbsp;Root Component" style="rounded=1;whiteSpace=wrap;html=1;fillColor=#ffe6cc;strokeColor=#d79b00;fontColor=#CC6600;" parent="Ka8gP7VvI0fFcUKiOHhF-7" vertex="1">
          <mxGeometry x="127" y="408" width="90" height="60" as="geometry" />
        </mxCell>
        <mxCell id="Ka8gP7VvI0fFcUKiOHhF-18" value="MSN Detail Root Component" style="rounded=1;whiteSpace=wrap;html=1;fillColor=#ffe6cc;strokeColor=#d79b00;fontColor=#CC6600;" parent="Ka8gP7VvI0fFcUKiOHhF-7" vertex="1">
          <mxGeometry x="278" y="412" width="85" height="60" as="geometry" />
        </mxCell>
        <mxCell id="Ka8gP7VvI0fFcUKiOHhF-19" value="CLB TLB Dashboard root component" style="rounded=1;whiteSpace=wrap;html=1;fillColor=#ffe6cc;strokeColor=#d79b00;fontColor=#CC6600;" parent="Ka8gP7VvI0fFcUKiOHhF-7" vertex="1">
          <mxGeometry x="645" y="414" width="90" height="60" as="geometry" />
        </mxCell>
        <mxCell id="Ka8gP7VvI0fFcUKiOHhF-24" value="" style="shape=flexArrow;endArrow=classic;html=1;fillColor=#fff2cc;strokeColor=#d6b656;" parent="Ka8gP7VvI0fFcUKiOHhF-7" edge="1">
          <mxGeometry width="50" height="50" relative="1" as="geometry">
            <mxPoint x="185" y="223" as="sourcePoint" />
            <mxPoint x="185" y="273" as="targetPoint" />
          </mxGeometry>
        </mxCell>
        <mxCell id="Ka8gP7VvI0fFcUKiOHhF-25" value="&lt;font color=&quot;#ffb570&quot;&gt;an FCM Initialize the TV App&lt;/font&gt;" style="text;html=1;align=center;verticalAlign=middle;resizable=0;points=[];autosize=1;" parent="Ka8gP7VvI0fFcUKiOHhF-7" vertex="1">
          <mxGeometry x="108" y="201" width="162" height="18" as="geometry" />
        </mxCell>
        <mxCell id="Ka8gP7VvI0fFcUKiOHhF-26" value="Reporting &lt;br&gt;Root Component" style="rounded=1;whiteSpace=wrap;html=1;fillColor=#ffe6cc;strokeColor=#d79b00;fontColor=#CC6600;" parent="Ka8gP7VvI0fFcUKiOHhF-7" vertex="1">
          <mxGeometry x="488" y="415" width="80" height="60" as="geometry" />
        </mxCell>
        <mxCell id="Ka8gP7VvI0fFcUKiOHhF-31" value="TV apps entry point components" style="rounded=1;whiteSpace=wrap;html=1;fillColor=#d5e8d4;strokeColor=#82b366;fontColor=#009900;" parent="Ka8gP7VvI0fFcUKiOHhF-7" vertex="1">
          <mxGeometry x="52" y="853" width="115" height="30" as="geometry" />
        </mxCell>
        <mxCell id="Ka8gP7VvI0fFcUKiOHhF-32" value="TV app main entry points components" style="rounded=1;whiteSpace=wrap;html=1;fillColor=#ffe6cc;strokeColor=#d79b00;fontColor=#CC6600;" parent="Ka8gP7VvI0fFcUKiOHhF-7" vertex="1">
          <mxGeometry x="191" y="847" width="165" height="40" as="geometry" />
        </mxCell>
        <mxCell id="Ka8gP7VvI0fFcUKiOHhF-33" value="business features components layer (may be dedicated to a single tv component, or used by several tv components)" style="rounded=1;whiteSpace=wrap;html=1;fillColor=#e1d5e7;strokeColor=#9673a6;fontColor=#7F00FF;" parent="Ka8gP7VvI0fFcUKiOHhF-7" vertex="1">
          <mxGeometry x="376" y="853" width="340" height="37.5" as="geometry" />
        </mxCell>
        <mxCell id="Ka8gP7VvI0fFcUKiOHhF-36" value="" style="endArrow=classic;startArrow=classic;html=1;strokeColor=#FF8000;fontColor=#7F00FF;" parent="Ka8gP7VvI0fFcUKiOHhF-7" edge="1">
          <mxGeometry width="50" height="50" relative="1" as="geometry">
            <mxPoint x="187.5" y="520" as="sourcePoint" />
            <mxPoint x="187.5" y="480" as="targetPoint" />
          </mxGeometry>
        </mxCell>
        <mxCell id="Ka8gP7VvI0fFcUKiOHhF-38" value="" style="endArrow=classic;startArrow=classic;html=1;strokeColor=#FF8000;fontColor=#7F00FF;" parent="Ka8gP7VvI0fFcUKiOHhF-7" edge="1">
          <mxGeometry width="50" height="50" relative="1" as="geometry">
            <mxPoint x="424" y="524" as="sourcePoint" />
            <mxPoint x="424" y="484" as="targetPoint" />
          </mxGeometry>
        </mxCell>
        <mxCell id="Ka8gP7VvI0fFcUKiOHhF-39" value="" style="endArrow=classic;startArrow=classic;html=1;strokeColor=#FF8000;fontColor=#7F00FF;" parent="Ka8gP7VvI0fFcUKiOHhF-7" edge="1">
          <mxGeometry width="50" height="50" relative="1" as="geometry">
            <mxPoint x="650" y="522" as="sourcePoint" />
            <mxPoint x="650" y="482" as="targetPoint" />
          </mxGeometry>
        </mxCell>
        <mxCell id="Ka8gP7VvI0fFcUKiOHhF-86" value="" style="group" parent="Ka8gP7VvI0fFcUKiOHhF-7" vertex="1" connectable="0">
          <mxGeometry x="97" y="530" width="655" height="182" as="geometry" />
        </mxCell>
        <mxCell id="Ka8gP7VvI0fFcUKiOHhF-28" value="" style="rounded=1;whiteSpace=wrap;html=1;fillColor=#e1d5e7;strokeColor=#9673a6;" parent="Ka8gP7VvI0fFcUKiOHhF-86" vertex="1">
          <mxGeometry width="655" height="182" as="geometry" />
        </mxCell>
        <mxCell id="Ka8gP7VvI0fFcUKiOHhF-30" value="&lt;span style=&quot;white-space: normal&quot;&gt;UI components (using horizon components)&lt;/span&gt;" style="rounded=1;whiteSpace=wrap;html=1;fillColor=#f8cecc;strokeColor=#b85450;fontColor=#FF0000;" parent="Ka8gP7VvI0fFcUKiOHhF-86" vertex="1">
          <mxGeometry x="75" y="100" width="540" height="61" as="geometry" />
        </mxCell>
        <mxCell id="Ka8gP7VvI0fFcUKiOHhF-29" value="controller / state management components" style="rounded=1;whiteSpace=wrap;html=1;fillColor=#fff2cc;strokeColor=#d6b656;fontColor=#CC6600;" parent="Ka8gP7VvI0fFcUKiOHhF-86" vertex="1">
          <mxGeometry x="75" y="20" width="540" height="50" as="geometry" />
        </mxCell>
        <mxCell id="Ka8gP7VvI0fFcUKiOHhF-40" value="" style="endArrow=classic;startArrow=classic;html=1;strokeColor=#6600CC;fontColor=#7F00FF;" parent="Ka8gP7VvI0fFcUKiOHhF-86" edge="1">
          <mxGeometry width="50" height="50" relative="1" as="geometry">
            <mxPoint x="442" y="97" as="sourcePoint" />
            <mxPoint x="442" y="73" as="targetPoint" />
          </mxGeometry>
        </mxCell>
        <mxCell id="Ka8gP7VvI0fFcUKiOHhF-41" value="" style="endArrow=classic;startArrow=classic;html=1;strokeColor=#6600CC;fontColor=#7F00FF;" parent="Ka8gP7VvI0fFcUKiOHhF-86" edge="1">
          <mxGeometry width="50" height="50" relative="1" as="geometry">
            <mxPoint x="363" y="97" as="sourcePoint" />
            <mxPoint x="363" y="73" as="targetPoint" />
          </mxGeometry>
        </mxCell>
        <mxCell id="Ka8gP7VvI0fFcUKiOHhF-42" value="" style="endArrow=classic;startArrow=classic;html=1;strokeColor=#6600CC;fontColor=#7F00FF;" parent="Ka8gP7VvI0fFcUKiOHhF-86" edge="1">
          <mxGeometry width="50" height="50" relative="1" as="geometry">
            <mxPoint x="269" y="97" as="sourcePoint" />
            <mxPoint x="269" y="73" as="targetPoint" />
          </mxGeometry>
        </mxCell>
        <mxCell id="T0iJW6xwWuFh2RoNAZjV-5" value="" style="endArrow=none;startArrow=none;html=1;strokeColor=#FF8000;fontColor=#7F00FF;entryX=0.493;entryY=1;entryDx=0;entryDy=0;entryPerimeter=0;startFill=0;endFill=0;" edge="1" parent="Ka8gP7VvI0fFcUKiOHhF-7">
          <mxGeometry width="50" height="50" relative="1" as="geometry">
            <mxPoint x="421" y="373" as="sourcePoint" />
            <mxPoint x="420.9949999999999" y="309" as="targetPoint" />
          </mxGeometry>
        </mxCell>
        <mxCell id="rw0pwcqq5fau-SIRrmxV-1" value="Network view" style="locked=1;" parent="0" visible="0" />
        <mxCell id="rw0pwcqq5fau-SIRrmxV-2" value="VPC&amp;nbsp;&lt;span style=&quot;color: rgb(0 , 0 , 0) ; font-family: &amp;#34;arial&amp;#34; ; font-size: 14px ; white-space: pre ; background-color: rgb(234 , 243 , 254)&quot;&gt;vpc-ew1-2j93-adcbackbonepoc-val&lt;/span&gt;" style="points=[[0,0],[0.25,0],[0.5,0],[0.75,0],[1,0],[1,0.25],[1,0.5],[1,0.75],[1,1],[0.75,1],[0.5,1],[0.25,1],[0,1],[0,0.75],[0,0.5],[0,0.25]];outlineConnect=0;gradientColor=none;html=1;whiteSpace=wrap;fontSize=12;fontStyle=0;shape=mxgraph.aws4.group;grIcon=mxgraph.aws4.group_vpc;strokeColor=#248814;fillColor=none;verticalAlign=top;align=left;spacingLeft=30;fontColor=#AAB7B8;dashed=0;" parent="rw0pwcqq5fau-SIRrmxV-1" vertex="1">
          <mxGeometry x="20" y="20" width="770" height="430" as="geometry" />
        </mxCell>
        <mxCell id="rw0pwcqq5fau-SIRrmxV-3" value="Private subnet-03" style="points=[[0,0],[0.25,0],[0.5,0],[0.75,0],[1,0],[1,0.25],[1,0.5],[1,0.75],[1,1],[0.75,1],[0.5,1],[0.25,1],[0,1],[0,0.75],[0,0.5],[0,0.25]];outlineConnect=0;gradientColor=none;html=1;whiteSpace=wrap;fontSize=12;fontStyle=0;shape=mxgraph.aws4.group;grIcon=mxgraph.aws4.group_security_group;grStroke=0;strokeColor=#147EBA;fillColor=#E6F2F8;verticalAlign=top;align=left;spacingLeft=30;fontColor=#147EBA;dashed=0;" parent="rw0pwcqq5fau-SIRrmxV-1" vertex="1">
          <mxGeometry x="70" y="110" width="170" height="130" as="geometry" />
        </mxCell>
        <mxCell id="rw0pwcqq5fau-SIRrmxV-4" value="Private subnet-04" style="points=[[0,0],[0.25,0],[0.5,0],[0.75,0],[1,0],[1,0.25],[1,0.5],[1,0.75],[1,1],[0.75,1],[0.5,1],[0.25,1],[0,1],[0,0.75],[0,0.5],[0,0.25]];outlineConnect=0;gradientColor=none;html=1;whiteSpace=wrap;fontSize=12;fontStyle=0;shape=mxgraph.aws4.group;grIcon=mxgraph.aws4.group_security_group;grStroke=0;strokeColor=#147EBA;fillColor=#E6F2F8;verticalAlign=top;align=left;spacingLeft=30;fontColor=#147EBA;dashed=0;" parent="rw0pwcqq5fau-SIRrmxV-1" vertex="1">
          <mxGeometry x="300" y="110" width="190" height="130" as="geometry" />
        </mxCell>
        <mxCell id="rw0pwcqq5fau-SIRrmxV-5" value="Private subnet-05" style="points=[[0,0],[0.25,0],[0.5,0],[0.75,0],[1,0],[1,0.25],[1,0.5],[1,0.75],[1,1],[0.75,1],[0.5,1],[0.25,1],[0,1],[0,0.75],[0,0.5],[0,0.25]];outlineConnect=0;gradientColor=none;html=1;whiteSpace=wrap;fontSize=12;fontStyle=0;shape=mxgraph.aws4.group;grIcon=mxgraph.aws4.group_security_group;grStroke=0;strokeColor=#147EBA;fillColor=#E6F2F8;verticalAlign=top;align=left;spacingLeft=30;fontColor=#147EBA;dashed=0;" parent="rw0pwcqq5fau-SIRrmxV-1" vertex="1">
          <mxGeometry x="545" y="110" width="230" height="130" as="geometry" />
        </mxCell>
        <mxCell id="rw0pwcqq5fau-SIRrmxV-6" value="&lt;span style=&quot;color: rgb(22 , 25 , 31) ; font-family: &amp;#34;amazon ember&amp;#34; , &amp;#34;helvetica neue&amp;#34; , &amp;#34;roboto&amp;#34; , &amp;#34;arial&amp;#34; , sans-serif ; font-size: 14px ; white-space: normal ; background-color: rgb(241 , 250 , 255)&quot;&gt;10.102.209.128/25&lt;/span&gt;" style="text;html=1;resizable=0;autosize=1;align=center;verticalAlign=middle;points=[];fillColor=none;strokeColor=none;rounded=0;" parent="rw0pwcqq5fau-SIRrmxV-1" vertex="1">
          <mxGeometry x="330" y="250" width="130" height="20" as="geometry" />
        </mxCell>
        <mxCell id="rw0pwcqq5fau-SIRrmxV-7" value="&lt;span style=&quot;color: rgb(22 , 25 , 31) ; font-family: &amp;#34;amazon ember&amp;#34; , &amp;#34;helvetica neue&amp;#34; , &amp;#34;roboto&amp;#34; , &amp;#34;arial&amp;#34; , sans-serif ; font-size: 14px ; white-space: normal ; background-color: rgb(241 , 250 , 255)&quot;&gt;10.102.209.0/25&lt;/span&gt;" style="text;html=1;align=center;verticalAlign=middle;resizable=0;points=[];autosize=1;" parent="rw0pwcqq5fau-SIRrmxV-1" vertex="1">
          <mxGeometry x="600" y="250" width="120" height="20" as="geometry" />
        </mxCell>
        <mxCell id="rw0pwcqq5fau-SIRrmxV-8" value="&lt;span style=&quot;color: rgb(22 , 25 , 31) ; font-family: &amp;#34;amazon ember&amp;#34; , &amp;#34;helvetica neue&amp;#34; , &amp;#34;roboto&amp;#34; , &amp;#34;arial&amp;#34; , sans-serif ; font-size: 14px ; white-space: normal ; background-color: rgb(241 , 250 , 255)&quot;&gt;10.102.207.128/25&lt;/span&gt;" style="text;html=1;align=center;verticalAlign=middle;resizable=0;points=[];autosize=1;" parent="rw0pwcqq5fau-SIRrmxV-1" vertex="1">
          <mxGeometry x="90" y="250" width="130" height="20" as="geometry" />
        </mxCell>
        <mxCell id="rw0pwcqq5fau-SIRrmxV-12" value="" style="outlineConnect=0;fontColor=#232F3E;gradientColor=none;fillColor=#D05C17;strokeColor=none;dashed=0;verticalLabelPosition=bottom;verticalAlign=top;align=center;html=1;fontSize=12;fontStyle=0;aspect=fixed;pointerEvents=1;shape=mxgraph.aws4.lambda_function;" parent="rw0pwcqq5fau-SIRrmxV-1" vertex="1">
          <mxGeometry x="131" y="170" width="48" height="48" as="geometry" />
        </mxCell>
        <mxCell id="rw0pwcqq5fau-SIRrmxV-13" value="" style="outlineConnect=0;fontColor=#232F3E;gradientColor=none;fillColor=#D05C17;strokeColor=none;dashed=0;verticalLabelPosition=bottom;verticalAlign=top;align=center;html=1;fontSize=12;fontStyle=0;aspect=fixed;pointerEvents=1;shape=mxgraph.aws4.lambda_function;" parent="rw0pwcqq5fau-SIRrmxV-1" vertex="1">
          <mxGeometry x="371" y="170" width="48" height="48" as="geometry" />
        </mxCell>
        <mxCell id="rw0pwcqq5fau-SIRrmxV-14" value="" style="outlineConnect=0;fontColor=#232F3E;gradientColor=none;fillColor=#D05C17;strokeColor=none;dashed=0;verticalLabelPosition=bottom;verticalAlign=top;align=center;html=1;fontSize=12;fontStyle=0;aspect=fixed;pointerEvents=1;shape=mxgraph.aws4.lambda_function;" parent="rw0pwcqq5fau-SIRrmxV-1" vertex="1">
          <mxGeometry x="636" y="170" width="48" height="48" as="geometry" />
        </mxCell>
      </root>
    </mxGraphModel>
  </diagram>
</mxfile>
